HIERARCHY
ROOT Hips
{
    OFFSET 0.0 0.0 0.0
    CHANNELS 6 Xposition Yposition Zposition Zrotation Xrotation Yrotation
    JOINT LeftHipJoint
    {
        OFFSET 0.1 0.0 0.0
        CHANNELS 3 Zrotation Xrotation Yrotation
        JOINT LeftUpLeg
        {
            OFFSET 119.13754340622629 0.0 0.0
            CHANNELS 3 Zrotation Xrotation Yrotation
            JOINT LeftLeg
            {
                OFFSET 0.0 0.0 -407.86383736572634
                CHANNELS 3 Zrotation Xrotation Yrotation
                JOINT LeftFoot
                {
                    OFFSET 0.0 0.0 -395.70472279859854
                    CHANNELS 3 Zrotation Xrotation Yrotation
                    End Site
                    {
                        OFFSET 0.0 -0.1 0.0
                    }
                }
            }
        }
    }
    JOINT LowerBack
    {
        OFFSET 0.0 0.0 0.1
        CHANNELS 3 Zrotation Xrotation Yrotation
        JOINT Spine
        {
            OFFSET 0.0 0.0 218.41318794886976
            CHANNELS 3 Zrotation Xrotation Yrotation
            JOINT Spine1
            {
                OFFSET 0.0 0.0 251.79001281661408
                CHANNELS 3 Zrotation Xrotation Yrotation
                JOINT LeftShoulder
                {
                    OFFSET 0.1 0.0 0.0
                    CHANNELS 3 Zrotation Xrotation Yrotation
                    JOINT LeftArm
                    {
                        OFFSET 142.96018974309752 0.0 0.0
                        CHANNELS 3 Zrotation Xrotation Yrotation
                        JOINT LeftForeArm
                        {
                            OFFSET 257.9963392941739 0.0 0.0
                            CHANNELS 3 Zrotation Xrotation Yrotation
                            JOINT LeftHand
                            {
                                OFFSET 243.69227322334893 0.0 0.0
                                CHANNELS 3 Zrotation Xrotation Yrotation
                                End Site
                                {
                                    OFFSET 0.1 0.0 0.0
                                }
                            }
                        }
                    }
                }
                JOINT Neck
                {
                    OFFSET 0.0 0.0 0.1
                    CHANNELS 3 Zrotation Xrotation Yrotation
                    JOINT Neck1
                    {
                        OFFSET 0.0 0.0 107.04408270822955
                        CHANNELS 3 Zrotation Xrotation Yrotation
                        End Site
                        {
                            OFFSET 0.0 0.0 116.23049453119611
                        }
                    }
                }
                JOINT RightShoulder
                {
                    OFFSET -0.1 0.0 0.0
                    CHANNELS 3 Zrotation Xrotation Yrotation
                    JOINT RightArm
                    {
                        OFFSET -142.96018974309752 0.0 0.0
                        CHANNELS 3 Zrotation Xrotation Yrotation
                        JOINT RightForeArm
                        {
                            OFFSET -257.9963392941739 0.0 0.0
                            CHANNELS 3 Zrotation Xrotation Yrotation
                            JOINT RightHand
                            {
                                OFFSET -243.69227322334893 0.0 0.0
                                CHANNELS 3 Zrotation Xrotation Yrotation
                                End Site
                                {
                                    OFFSET -0.1 0.0 0.0
                                }
                            }
                        }
                    }
                }
            }
        }
    }
    JOINT RightHipJoint
    {
        OFFSET -0.1 0.0 0.0
        CHANNELS 3 Zrotation Xrotation Yrotation
        JOINT RightUpLeg
        {
            OFFSET -119.13754340622629 0.0 0.0
            CHANNELS 3 Zrotation Xrotation Yrotation
            JOINT RightLeg
            {
                OFFSET 0.0 0.0 -407.86383736572634
                CHANNELS 3 Zrotation Xrotation Yrotation
                JOINT RightFoot
                {
                    OFFSET 0.0 0.0 -395.70472279859854
                    CHANNELS 3 Zrotation Xrotation Yrotation
                    End Site
                    {
                        OFFSET 0.0 -0.1 0.0
                    }
                }
            }
        }
    }
}
MOTION
Frames: 4
Frame Time: 0.03333333333333333
0.0 0.0 810.3090369150777 27.616495682071978 -1.5732170391944538 6.506023947109119 0.0 0.0 9.93923337957349e-17 -0.31404442503299707 -15.749673487712238 -3.091061112753565 -1.1065659444743852 29.819638226130685 0.20304273120809932 0.0 0.0 3.975693351829396e-16 0.0 0.0 9.93923337957349e-17 -0.10357471465566173 -5.2820917523218 0.8592156156080042 3.5828664771804055 4.135152105382201e-15 -1.3226247338082512e-15 0.0 0.0 0.0 -18.783599080673397 14.939764398109665 75.65533918470743 -22.790619060848908 -1.86935385402843e-15 5.250432964625108e-15 0.0 0.0 -2.1866313435061676e-15 0.0 0.0 0.0 -11.072517386997834 -1.2286834154679716 -4.112859523145031 0.0 0.0 0.0 6.228384712254429 -51.38938461207461 -35.77277837374545 113.45463938422913 3.4898587078862923e-15 -5.31832666598322e-15 0.0 0.0 0.0 0.0 0.0 9.93923337957349e-17 -0.14562503437901433 -7.329351176878616 -5.488265625080274 -1.9004587711361054 23.524887182388454 0.730145013928079 0.0 0.0 1.1927080055488186e-15
0.0 0.0 810.3090369150777 27.57690868991084 -1.658750267048113 6.430842791394508 0.0 0.0 -2.981770013872047e-16 -0.2989216850636339 -15.697743820585382 -3.0254350921672413 -1.093278776473769 29.694285377540048 0.20297160844754378 0.0 0.0 7.951386703658792e-16 0.0 0.0 -2.981770013872047e-16 -0.09893857802518828 -5.281078820152718 0.9211346316031322 3.617913913229776 -2.756498261157281e-15 8.825929293624153e-16 0.0 0.0 0.0 -18.839203877035803 14.965018837804513 75.7092465247876 -22.762356760399413 -5.260800092096981e-15 1.0017453527980881e-14 3.975693351829396e-16 1.5902773407317582e-15 -5.069009023582479e-15 0.0 0.0 0.0 -11.032601489622456 -1.482291503690853 -3.886917987940743 0.0 0.0 0.0 6.360676643718017 -51.73610870673069 -35.45796170742288 112.83554875217206 -5.2993948843049546e-15 -3.5185403489686552e-15 0.0 0.0 0.0 0.0 0.0 -2.981770013872047e-16 -0.1373198229539019 -7.23095434530825 -5.472136947529915 -1.8988161783775586 23.341631488489266 0.8794884641083186 0.0 0.0 3.975693351829396e-16
0.0 0.0 810.3090369150777 27.57219767801958 -1.8125042833441456 6.375747246921809 0.0 0.0 2.981770013872047e-16 -0.28152845385372427 -15.610349259910627 -2.976791551839732 -1.100944011458109 29.74172291967228 0.19665796039897707 0.0 0.0 -3.975693351829396e-16 0.0 0.0 2.981770013872047e-16 -0.09384423319122846 -5.284350587338346 1.0354002775482418 3.665669474549221 -4.482286444423108e-16 -1.5767480708800905e-15 0.0 0.0 0.0 -19.07807448499608 15.192202597869978 75.74980024093044 -22.788482102990486 3.504279409922995e-15 -5.313849004696485e-15 3.975693351829396e-16 0.0 0.0 0.0 0.0 0.0 -11.0602381617351 -1.644920053728091 -3.761664292472758 0.0 0.0 0.0 6.489539633308785 -51.92413826641006 -35.24535934933395 112.36492036204045 -3.4892485838203515e-15 -1.7650349654815666e-14 0.0 0.0 0.0 0.0 0.0 2.981770013872047e-16 -0.12648791560502431 -7.019304886223828 -5.468841693631112 -1.9079526203807942 23.18941217147399 0.9330864331108772 0.0 0.0 3.975693351829396e-16
0.0 0.0 810.3090369150777 27.55924094037853 -2.023719653699086 6.293600215035457 3.4483642953516864e-34 -1.987846675914698e-16 1.987846675914698e-16 -0.2634674417331363 -15.488086548491275 -2.952951268493875 -1.120211467767991 29.720180209616807 0.3570989755325631 0.0 0.0 0.0 3.4483642953516864e-34 -1.987846675914698e-16 1.987846675914698e-16 -0.08765751786137276 -5.227282618117031 1.185356504364964 3.6954478817846153 -2.7815383340821688e-15 8.973256735330593e-17 -6.3611093629270335e-15 0.0 0.0 -19.183718864879452 15.324039037695533 75.72808099138666 -22.845379412426947 -5.146295743686954e-15 1.38114777964668e-15 0.0 0.0 2.9817700138720468e-15 -6.3611093629270335e-15 0.0 0.0 -11.009579438078639 -1.8269296706317493 -3.6067873752019186 -6.3611093629270335e-15 0.0 0.0 6.737323507836917 -52.078469001198016 -34.97372694705664 111.74739467155239 -3.568703668835616e-15 5.2657446245670875e-15 7.951386703658792e-16 0.0 0.0 3.4483642953516864e-34 -1.987846675914698e-16 1.987846675914698e-16 -0.11637178289319455 -6.828739834713394 -5.417630354176668 -1.9086507361039742 23.168605499994214 0.9598026319836276 0.0 0.0 -7.951386703658792e-16
